<?xml version="1.0" standalone="no"?>
<!DOCTYPE svg PUBLIC "-//W3C//DTD SVG 20010904//EN"
 "http://www.w3.org/TR/2001/REC-SVG-20010904/DTD/svg10.dtd">
<svg version="1.0" xmlns="http://www.w3.org/2000/svg"
 width="130.000000pt" height="130.000000pt" viewBox="0 0 130.000000 130.000000"
 preserveAspectRatio="xMidYMid meet">
<metadata>
Created by potrace 1.14, written by Peter Selinger 2001-2017
</metadata>
<g transform="translate(0.000000,130.000000) scale(0.100000,-0.100000)"
fill="#000000" stroke="none">
<path d="M781 962 c-51 -158 -96 -293 -98 -299 -4 -10 39 -13 191 -13 108 0
196 3 196 6 0 7 -190 587 -193 591 -1 0 -44 -128 -96 -285z"/>
<path d="M375 1068 c-3 -7 -41 -116 -85 -243 -45 -126 -88 -244 -96 -262 -7
-17 -14 -35 -14 -40 0 -8 -123 -360 -145 -415 -7 -17 6 -18 184 -18 l190 0 21
72 c12 40 26 88 31 106 l11 32 170 -2 171 -3 13 -45 c7 -25 20 -71 29 -102
l16 -58 195 0 195 0 -7 23 c-3 12 -35 101 -69 197 -34 96 -66 185 -69 198 l-7
22 -291 0 c-228 0 -289 3 -286 13 12 30 168 526 168 531 0 3 -72 6 -160 6
-119 0 -162 -3 -165 -12z"/>
</g>
</svg>
